<svg style="enable-background:new 0 0 16 16;" version="1.1" viewBox="0 0 16 16" xml:space="preserve" xmlns="http://www.w3.org/2000/svg" xmlns:xlink="http://www.w3.org/1999/xlink"><g id="Guide"/><g id="Layer_2"><g><g><path d="M3.5,9.5c-0.38,0-0.74-0.14-1.02-0.4C2.18,8.82,2.01,8.45,2,8.05c-0.01-0.4,0.13-0.78,0.4-1.07     C2.68,6.68,3.05,6.52,3.45,6.5c0.4-0.01,0.78,0.13,1.08,0.4C4.82,7.18,4.99,7.55,5,7.95c0.01,0.4-0.13,0.78-0.4,1.07     C4.32,9.32,3.95,9.48,3.55,9.5l0,0C3.53,9.5,3.52,9.5,3.5,9.5z M3.54,9L3.54,9L3.54,9z M3.5,7.5c-0.01,0-0.01,0-0.02,0     c-0.13,0-0.26,0.06-0.35,0.16C3.04,7.76,3,7.88,3,8.02c0,0.13,0.06,0.26,0.16,0.35C3.26,8.46,3.38,8.5,3.52,8.5l0,0     c0.13,0,0.26-0.06,0.35-0.16C3.96,8.24,4,8.12,4,7.98c0-0.13-0.06-0.26-0.16-0.35C3.75,7.55,3.63,7.5,3.5,7.5z"/></g><g><path d="M8,9.5C7.17,9.5,6.5,8.83,6.5,8S7.17,6.5,8,6.5S9.5,7.17,9.5,8S8.83,9.5,8,9.5z M8,7.5C7.72,7.5,7.5,7.72,7.5,8     S7.72,8.5,8,8.5S8.5,8.28,8.5,8S8.28,7.5,8,7.5z"/></g><g><path d="M12.5,9.5C11.67,9.5,11,8.83,11,8s0.67-1.5,1.5-1.5S14,7.17,14,8S13.33,9.5,12.5,9.5z M12.5,7.5C12.22,7.5,12,7.72,12,8     s0.22,0.5,0.5,0.5S13,8.28,13,8S12.78,7.5,12.5,7.5z"/></g></g></g></svg>