<svg xmlns="http://www.w3.org/2000/svg" viewBox="0 0 24 24" data-supported-dps="24x24" fill="#5a5a5a" class="mercado-match" width="24" height="24" focusable="false">
    <path d="M22 11.1L20.47 10a1.09 1.09 0 01-.4-1.25l.62-1.81a1.11 1.11 0 00-.7-1.4 1.07 1.07 0 00-.35-.06h-2a1.09 1.09 0 01-1.05-.76l-.59-2A1.09 1.09 0 0015 2a1.11 1.11 0 00-.66.22l-1.69 1.17a1.13 1.13 0 01-1.31 0L9.75 2.22a1.11 1.11 0 00-1.55.16 1.07 1.07 0 00-.2.38L7.41 4.7a1.09 1.09 0 01-1 .76h-2a1.11 1.11 0 00-1.16 1.06 1.34 1.34 0 00.06.4l.63 1.82a1.1 1.1 0 01-.4 1.26L2 11.11a1.1 1.1 0 00-.26 1.53 1.28 1.28 0 00.26.26L3.53 14a1.09 1.09 0 01.4 1.25l-.62 1.8a1.11 1.11 0 00.7 1.4 1.07 1.07 0 00.35.06h2a1.09 1.09 0 011 .76l.64 2a1.12 1.12 0 001.1.73 1.05 1.05 0 00.64-.22l1.6-1.17a1.1 1.1 0 011.31 0l1.6 1.17a1.14 1.14 0 001.75-.55l.62-1.93a1.11 1.11 0 011.05-.76h2a1.11 1.11 0 001.11-1.11 1 1 0 00-.06-.35l-.63-1.82a1.11 1.11 0 01.38-1.26L22 12.89a1.07 1.07 0 00.5-.89 1.1 1.1 0 00-.5-.9zM7 11v-1h10v1zm2 3v-1h6v1z"></path>
  </svg>